<?xml version="1.0" encoding="iso-8859-1"?>
<!-- Generator: Adobe Illustrator 19.0.0, SVG Export Plug-In . SVG Version: 6.00 Build 0)  -->
<svg version="1.1" id="Capa_1" xmlns="http://www.w3.org/2000/svg" xmlns:xlink="http://www.w3.org/1999/xlink" x="0px" y="0px"
	 viewBox="0 0 512.003 512.003" style="enable-background:new 0 0 512.003 512.003;" xml:space="preserve">
<g>
	<path style="fill:#F7D291;" d="M32,264.006c-0.242,0-0.484-0.012-0.734-0.035c-2.922-0.266-5.461-2.113-6.617-4.812l-24-56
		c-1.742-4.062,0.141-8.766,4.203-10.504c4.023-1.742,8.758,0.133,10.5,4.199l18.187,42.426l23.805-35.711
		c2.445-3.68,7.406-4.672,11.094-2.219c3.68,2.449,4.672,7.418,2.219,11.094l-32,48C37.164,262.681,34.656,264.006,32,264.006z"/>
	<path style="fill:#F7D291;" d="M57.391,141.994c-1.688,0-3.367-0.535-4.766-1.574c-2.359-1.75-3.57-4.652-3.156-7.559l8.625-60.312
		c0.625-4.367,4.68-7.379,9.055-6.785c4.375,0.625,7.414,4.676,6.789,9.051l-6.539,45.691l38.914-18.121
		c4.023-1.863,8.773-0.121,10.625,3.875c1.867,4.008,0.133,8.766-3.875,10.633l-52.297,24.355
		C59.695,141.748,58.539,141.994,57.391,141.994z"/>
	<path style="fill:#F7D291;" d="M74.266,378.24c-1.469,0-2.953-0.402-4.289-1.25l-51.398-32.703
		c-3.727-2.371-4.828-7.316-2.453-11.043c2.375-3.734,7.312-4.824,11.047-2.457l51.398,32.703c3.727,2.371,4.828,7.316,2.453,11.043
		C79.5,376.931,76.914,378.24,74.266,378.24z"/>
	<path style="fill:#F7D291;" d="M117.164,458.791c-4.414,0-7.992-3.57-8-7.984c-0.008-4.418,3.562-8.008,7.984-8.016l60.922-0.129
		c0.008,0,0.008,0,0.016,0c4.414,0,7.992,3.57,8,7.984c0.008,4.418-3.562,8.008-7.984,8.016l-60.922,0.129
		C117.172,458.791,117.172,458.791,117.164,458.791z"/>
	<path style="fill:#F7D291;" d="M480.001,264.006c-2.656,0-5.164-1.324-6.656-3.562l-32-48c-2.453-3.676-1.461-8.645,2.219-11.094
		c3.68-2.453,8.641-1.461,11.094,2.219l23.805,35.711l18.188-42.426c1.734-4.059,6.477-5.934,10.5-4.199
		c4.062,1.738,5.945,6.441,4.203,10.504l-24,56c-1.156,2.699-3.695,4.547-6.617,4.812
		C480.484,263.994,480.243,264.006,480.001,264.006z"/>
	<path style="fill:#F7D291;" d="M454.609,141.994c-1.148,0-2.297-0.246-3.375-0.746l-52.297-24.355
		c-4.008-1.867-5.742-6.625-3.875-10.633c1.859-3.996,6.594-5.738,10.625-3.875l38.914,18.121l-6.539-45.691
		c-0.625-4.375,2.414-8.426,6.789-9.051c4.383-0.629,8.43,2.414,9.055,6.785l8.625,60.312c0.414,2.906-0.797,5.809-3.156,7.559
		C457.978,141.459,456.298,141.994,454.609,141.994z"/>
	<path style="fill:#F7D291;" d="M437.734,378.24c-2.648,0-5.234-1.309-6.758-3.707c-2.375-3.727-1.273-8.672,2.453-11.043
		l51.398-32.703c3.742-2.379,8.68-1.273,11.047,2.457c2.375,3.727,1.273,8.672-2.453,11.043l-51.398,32.703
		C440.689,377.838,439.204,378.24,437.734,378.24z"/>
	<path style="fill:#F7D291;" d="M394.837,458.791c-0.008,0-0.008,0-0.016,0l-60.922-0.129c-4.422-0.008-7.992-3.598-7.984-8.016
		c0.008-4.414,3.586-7.984,8-7.984c0.008,0,0.008,0,0.016,0l60.922,0.129c4.422,0.008,7.992,3.598,7.984,8.016
		C402.829,455.22,399.251,458.791,394.837,458.791z"/>
</g>
<g>
	<path style="fill:#F0C382;" d="M104,232.006c-4.422,0-8-3.582-8-8v-48c0-4.418,3.578-8,8-8s8,3.582,8,8v48
		C112,228.424,108.422,232.006,104,232.006z"/>
	<path style="fill:#F0C382;" d="M397.009,210.006c-0.234,0-0.469-0.012-0.711-0.031c-4.398-0.387-7.656-4.27-7.266-8.672l3-34
		c0.391-4.395,4.18-7.598,8.672-7.266c4.398,0.387,7.656,4.27,7.266,8.672l-3,34C404.603,206.869,401.109,210.006,397.009,210.006z"
		/>
	<path style="fill:#F0C382;" d="M89.328,325.338c-1.703,0-3.43-0.543-4.883-1.668c-3.5-2.703-4.141-7.727-1.438-11.223
		l22.664-29.332c2.68-3.488,7.719-4.16,11.219-1.441c3.5,2.703,4.141,7.727,1.438,11.223l-22.664,29.332
		C94.094,324.267,91.727,325.338,89.328,325.338z"/>
	<path style="fill:#F0C382;" d="M409.501,370.006c-2.203,0-4.398-0.906-5.977-2.684l-16-18c-2.938-3.305-2.641-8.359,0.664-11.297
		c3.297-2.93,8.352-2.637,11.289,0.664l16,18c2.938,3.305,2.641,8.359-0.664,11.297C413.29,369.338,411.392,370.006,409.501,370.006
		z"/>
	<path style="fill:#F0C382;" d="M420.001,278.51c-0.992,0-2-0.188-2.969-0.574l-22.5-9c-4.102-1.645-6.102-6.297-4.461-10.402
		c1.641-4.105,6.336-6.082,10.398-4.457l22.5,9c4.102,1.645,6.102,6.297,4.461,10.402
		C426.181,276.603,423.173,278.51,420.001,278.51z"/>
</g>
<g>
	<path style="fill:#F7D291;" d="M257.493,285.006c-1.609,0-3.242-0.484-4.656-1.496c-3.586-2.574-4.414-7.574-1.836-11.164l21.5-30
		c2.57-3.59,7.555-4.426,11.164-1.844c3.586,2.574,4.414,7.574,1.836,11.164l-21.5,30
		C262.439,283.846,259.984,285.006,257.493,285.006z"/>
	<path style="fill:#F7D291;" d="M358.001,308.01c-0.891,0-1.805-0.152-2.688-0.469c-4.164-1.488-6.336-6.066-4.844-10.227l7.5-21
		c1.477-4.156,6.062-6.332,10.219-4.844c4.164,1.488,6.336,6.066,4.844,10.227l-7.5,21
		C364.368,305.967,361.29,308.01,358.001,308.01z"/>
	<path style="fill:#F7D291;" d="M341.009,429.506c-2.547,0-5.055-1.215-6.609-3.477l-12-17.5c-2.492-3.645-1.57-8.621,2.078-11.121
		c3.648-2.504,8.625-1.57,11.125,2.074l12,17.5c2.492,3.645,1.57,8.621-2.078,11.121
		C344.142,429.052,342.564,429.506,341.009,429.506z"/>
	<path style="fill:#F7D291;" d="M162.992,420.006c-1.68,0-3.383-0.531-4.828-1.625c-3.516-2.672-4.211-7.691-1.539-11.211l11-14.5
		c2.672-3.516,7.672-4.219,11.211-1.539c3.516,2.672,4.211,7.691,1.539,11.211l-11,14.5
		C167.798,418.916,165.414,420.006,162.992,420.006z"/>
	<path style="fill:#F7D291;" d="M148.501,320.506c-2.117,0-4.234-0.836-5.805-2.5l-9-9.5c-3.039-3.207-2.906-8.27,0.305-11.309
		c3.211-3.027,8.273-2.906,11.305,0.309l9,9.5c3.039,3.207,2.906,8.27-0.305,11.309
		C152.453,319.779,150.477,320.506,148.501,320.506z"/>
</g>
<g>
	<path style="fill:#F0C382;" d="M207.344,266.006c-2.414,0-4.805-1.09-6.375-3.16l-25.336-33.332
		c-2.672-3.516-1.992-8.535,1.523-11.207c3.531-2.68,8.547-1.988,11.211,1.527l25.336,33.332c2.672,3.516,1.992,8.535-1.523,11.207
		C210.727,265.474,209.031,266.006,207.344,266.006z"/>
	<path style="fill:#F0C382;" d="M226.656,380.006c-1.656,0-3.32-0.512-4.758-1.57c-3.547-2.633-4.289-7.641-1.664-11.191l13.336-18
		c2.633-3.547,7.633-4.289,11.195-1.668c3.547,2.633,4.289,7.641,1.664,11.191l-13.336,18
		C231.524,378.885,229.109,380.006,226.656,380.006z"/>
	<path style="fill:#F0C382;" d="M235.992,428.674c-3.766,0-7.117-2.668-7.852-6.504c-0.828-4.34,2.023-8.527,6.359-9.355l14-2.668
		c4.414-0.797,8.531,2.027,9.359,6.363c0.828,4.34-2.023,8.527-6.359,9.355l-14,2.668
		C236.992,428.627,236.484,428.674,235.992,428.674z"/>
</g>
<path style="fill:#E3AA75;" d="M295.993,464.006c-1.492,0-2.992-0.414-4.336-1.285c-139.734-90.414-75.836-271.629-75.172-273.449
	c1.508-4.148,6.102-6.273,10.242-4.785c4.156,1.508,6.297,6.098,4.797,10.25c-0.156,0.43-15.578,43.645-14.516,96.609
	c1.398,69.93,29.438,123.066,83.336,157.945c3.711,2.398,4.773,7.352,2.375,11.062C301.189,462.717,298.618,464.006,295.993,464.006
	z"/>
<path style="fill:#F0C382;" d="M256.001,472.006c-66.172,0-120-53.832-120-120c0-24.687,7.438-48.402,21.516-68.578
	c2.523-3.625,7.5-4.523,11.141-1.984c3.625,2.531,4.508,7.516,1.984,11.141c-12.195,17.477-18.641,38.023-18.641,59.422
	c0,57.348,46.656,104,104,104s104-46.652,104-104s-46.656-104-104-104c-4.422,0-8-3.582-8-8s3.578-8,8-8
	c66.172,0,120,53.832,120,120S322.173,472.006,256.001,472.006z"/>
<path style="fill:#E3AA75;" d="M256.001,472.006c-97.047,0-176-78.953-176-176c0-87.02,64.859-161.914,150.867-174.215
	c4.375-0.66,8.43,2.414,9.055,6.785c0.625,4.375-2.414,8.426-6.789,9.051c-78.18,11.184-137.133,79.27-137.133,158.379
	c0,88.223,71.773,160,160,160s160-71.777,160-160c0-56.625-28.992-107.898-77.555-137.156c-3.789-2.277-5.008-7.195-2.727-10.98
	c2.273-3.785,7.195-5,10.977-2.723c53.414,32.18,85.305,88.574,85.305,150.859C432.001,393.053,353.048,472.006,256.001,472.006z"/>
<path style="fill:#F0C382;" d="M256.001,472.006c-127.922,0-232-104.074-232-232c0-62.863,24.727-121.715,69.633-165.715
	c3.164-3.086,8.227-3.043,11.312,0.117c3.094,3.156,3.047,8.219-0.109,11.312c-41.812,40.965-64.836,95.758-64.836,154.285
	c0,119.102,96.898,216,216,216s216-96.898,216-216c0-76.437-39.141-145.656-104.695-185.156c-3.789-2.281-5.008-7.195-2.727-10.98
	c2.273-3.785,7.203-5.004,10.977-2.723c70.414,42.418,112.445,116.762,112.445,198.859
	C488.001,367.931,383.923,472.006,256.001,472.006z"/>
<g>
</g>
<g>
</g>
<g>
</g>
<g>
</g>
<g>
</g>
<g>
</g>
<g>
</g>
<g>
</g>
<g>
</g>
<g>
</g>
<g>
</g>
<g>
</g>
<g>
</g>
<g>
</g>
<g>
</g>
</svg>
